<svg viewBox="0 0 400 400" fill="none" xmlns="http://www.w3.org/2000/svg"><path d="M31 300.455V155h54.546c11.174 0 20.549 1.941 28.124 5.824 7.624 3.882 13.376 9.328 17.259 16.335 3.93 6.96 5.895 15.081 5.895 24.361 0 9.328-1.989 17.424-5.966 24.29-3.93 6.818-9.73 12.097-17.401 15.838-7.67 3.693-17.092 5.54-28.267 5.54H46.34v-21.876h35.3c6.533 0 11.884-.899 16.05-2.698 4.167-1.847 7.245-4.522 9.233-8.026 2.036-3.551 3.054-7.907 3.054-13.068s-1.018-9.565-3.054-13.21c-2.036-3.694-5.137-6.487-9.304-8.381-4.166-1.941-9.54-2.912-16.122-2.912H57.35v123.438H31Zm75.142-65.91 36.009 65.91h-29.404l-35.37-65.91h28.765Z" fill="#DC2626"/><path d="M31 127.551V99h338v28.551H213.085v172.404h-34.659V127.551H31Z" fill="#000"/><path d="M368.94 271.903v28.552H246v-28.552h44.105V155h34.659v116.903h44.176Z" fill="#DC2626"/></svg>
